<svg width="30" height="30" viewBox="0 0 30 30" fill="none" xmlns="http://www.w3.org/2000/svg">
<g clip-path="url(#clip0_110_330)">
<path d="M25.3964 5.615C23.4839 4.7525 21.4339 4.115 19.2901 3.7525C19.271 3.74883 19.2513 3.75119 19.2336 3.75926C19.2159 3.76732 19.2011 3.78068 19.1914 3.7975C18.9289 4.25875 18.6364 4.86 18.4314 5.335C16.1577 4.99529 13.8462 4.99529 11.5726 5.335C11.3443 4.80857 11.0868 4.29528 10.8014 3.7975C10.7917 3.78048 10.7771 3.76681 10.7594 3.75832C10.7418 3.74984 10.722 3.74693 10.7026 3.75C8.56011 4.1125 6.51011 4.75 4.59636 5.61375C4.5799 5.62065 4.56594 5.63243 4.55636 5.6475C0.666363 11.3662 -0.399887 16.9437 0.123863 22.4512C0.12532 22.4647 0.129507 22.4778 0.136169 22.4896C0.14283 22.5014 0.151828 22.5118 0.162612 22.52C2.4331 24.173 4.96553 25.4323 7.65386 26.245C7.6726 26.2508 7.69265 26.2508 7.71138 26.245C7.73011 26.2392 7.74666 26.2278 7.75886 26.2125C8.33736 25.4388 8.84998 24.618 9.29136 23.7587C9.29749 23.747 9.30102 23.7341 9.30172 23.7208C9.30241 23.7076 9.30026 23.6944 9.2954 23.6821C9.29054 23.6697 9.28309 23.6586 9.27355 23.6494C9.26401 23.6402 9.25261 23.6332 9.24011 23.6287C8.43262 23.3247 7.65022 22.9577 6.90011 22.5312C6.88663 22.5236 6.87528 22.5126 6.86706 22.4995C6.85884 22.4863 6.85402 22.4713 6.85303 22.4558C6.85204 22.4403 6.85491 22.4248 6.86138 22.4107C6.86785 22.3966 6.87772 22.3843 6.89011 22.375C7.04761 22.2587 7.20511 22.1375 7.35511 22.0162C7.36861 22.0053 7.38488 21.9984 7.40209 21.9962C7.41931 21.994 7.4368 21.9966 7.45261 22.0037C12.3614 24.2087 17.6776 24.2087 22.5289 22.0037C22.5447 21.9962 22.5624 21.9932 22.5799 21.9952C22.5973 21.9972 22.6139 22.0041 22.6276 22.015C22.7776 22.1375 22.9339 22.2587 23.0926 22.375C23.1051 22.3842 23.1152 22.3963 23.1218 22.4102C23.1285 22.4242 23.1316 22.4397 23.1309 22.4551C23.1301 22.4706 23.1256 22.4857 23.1176 22.499C23.1096 22.5122 23.0984 22.5233 23.0851 22.5312C22.3376 22.9612 21.5601 23.325 20.7439 23.6275C20.7313 23.632 20.7199 23.6392 20.7104 23.6485C20.7008 23.6579 20.6934 23.6691 20.6885 23.6815C20.6837 23.6939 20.6815 23.7073 20.6822 23.7206C20.6829 23.7339 20.6865 23.7469 20.6926 23.7587C21.1426 24.6175 21.6576 25.435 22.2239 26.2112C22.2356 26.2272 22.252 26.2391 22.2708 26.2453C22.2896 26.2516 22.3099 26.2519 22.3289 26.2462C25.0218 25.4358 27.5584 24.176 29.8314 22.52C29.8425 22.5122 29.8518 22.5022 29.8587 22.4906C29.8656 22.4789 29.8699 22.4659 29.8714 22.4525C30.4964 16.085 28.8239 10.5525 25.4351 5.65C25.4268 5.63407 25.4131 5.62165 25.3964 5.615ZM10.0251 19.0975C8.54761 19.0975 7.32886 17.7612 7.32886 16.1225C7.32886 14.4825 8.52386 13.1475 10.0251 13.1475C11.5376 13.1475 12.7451 14.4937 12.7214 16.1225C12.7214 17.7625 11.5264 19.0975 10.0251 19.0975V19.0975ZM19.9939 19.0975C18.5151 19.0975 17.2976 17.7612 17.2976 16.1225C17.2976 14.4825 18.4914 13.1475 19.9939 13.1475C21.5064 13.1475 22.7139 14.4937 22.6901 16.1225C22.6901 17.7625 21.5076 19.0975 19.9939 19.0975V19.0975Z" fill="white"/>
</g>
<defs>
<clipPath id="clip0_110_330">
<rect width="30" height="30" fill="white"/>
</clipPath>
</defs>
</svg>
